<?xml version="1.0" encoding="utf-8"?>
<!-- Generator: Adobe Illustrator 21.0.0, SVG Export Plug-In . SVG Version: 6.00 Build 0)  -->
<svg version="1.1" id="Group_70" xmlns="http://www.w3.org/2000/svg" xmlns:xlink="http://www.w3.org/1999/xlink" x="0px" y="0px"
	 viewBox="0 0 35.2 24" style="enable-background:new 0 0 35.2 24;" xml:space="preserve">
<style type="text/css">
	.st0{fill:none;}
	.st1{fill:#FFFFFF;}
	.st2{fill:none;stroke:#FFFFFF;stroke-width:1.7;}
</style>
<g>
	<g id="Subtraction_11" transform="translate(0.002 0.466)">
		<path class="st0" d="M33,23.5H2c-1.1,0-2-0.9-2-2v-20C0,0.9,0.3,0.4,0.7,0l15.4,15.4c0.8,0.8,2,0.8,2.8,0c0,0,0,0,0,0L34.3,0
			C34.7,0.4,35,0.9,35,1.5v20C35,22.6,34.1,23.5,33,23.5z"/>
		<path class="st1" d="M33,21.8c0.2,0,0.3-0.1,0.3-0.3V3.4L20.1,16.6c-0.7,0.7-1.6,1.1-2.6,1.1c-1,0-1.9-0.4-2.6-1.1L1.7,3.4v18.1
			c0,0.2,0.1,0.3,0.3,0.3H33 M33,23.5H2c-1.1,0-2-0.9-2-2v-20C0,0.9,0.3,0.4,0.7,0l15.4,15.4c0.4,0.4,0.9,0.6,1.4,0.6
			c0.5,0,1-0.2,1.4-0.6L34.3,0C34.7,0.4,35,0.9,35,1.5v20C35,22.6,34.1,23.5,33,23.5z"/>
	</g>
	<g id="Intersection_2" transform="translate(0.225 11.449)">
		<path class="st0" d="M1.8,12.5L1.8,12.5H1.6l0,0c-0.7,0-1.3-0.5-1.6-1.1L11.5,0l4.4,4.4c0.8,0.8,2,0.8,2.8,0c0,0,0,0,0,0L23.1,0
			l11.5,11.5c-0.3,0.6-0.9,1-1.5,1.1l0,0h0h0h0L1.8,12.5L1.8,12.5z"/>
		<path class="st1" d="M31.5,10.9l-8.4-8.4l-3.2,3.2c-0.7,0.7-1.6,1.1-2.6,1.1c-1,0-1.9-0.4-2.6-1.1l-3.2-3.2L3,10.9H31.5
			 M32.8,12.6h-31c0,0,0,0,0,0c0,0,0,0,0,0c0,0,0,0,0,0c0,0,0,0,0,0c0,0,0,0-0.1,0c0,0,0,0,0,0c-0.7,0-1.3-0.5-1.6-1.1L11.5,0
			l4.4,4.4C16.2,4.8,16.7,5,17.3,5c0.5,0,1-0.2,1.4-0.6L23.1,0l11.5,11.5c-0.3,0.6-0.9,1-1.5,1.1c0,0,0,0,0,0c0,0,0,0,0,0
			c0,0,0,0,0,0c0,0,0,0,0,0c0,0,0,0,0,0c0,0,0,0,0,0c0,0,0,0,0,0c0,0,0,0,0,0C32.9,12.5,32.9,12.5,32.8,12.6
			C32.8,12.5,32.8,12.5,32.8,12.6C32.8,12.5,32.8,12.5,32.8,12.6C32.8,12.6,32.8,12.6,32.8,12.6C32.8,12.6,32.8,12.6,32.8,12.6z"/>
	</g>
	<g id="Rectangle_224" transform="translate(0.163)">
		<path class="st0" d="M2,0h31c1.1,0,2,0.9,2,2v20c0,1.1-0.9,2-2,2H2c-1.1,0-2-0.9-2-2V2C0,0.9,0.9,0,2,0z"/>
		<path class="st2" d="M2,0.8h31c0.6,0,1.2,0.5,1.2,1.1v20c0,0.6-0.5,1.1-1.2,1.1H2c-0.6,0-1.1-0.5-1.1-1.1V2C0.9,1.4,1.4,0.8,2,0.8
			z"/>
	</g>
</g>
</svg>
