<svg id="left-quote" xmlns="http://www.w3.org/2000/svg" width="38.673" height="32.297" viewBox="0 0 38.673 32.297">
  <g id="Group_29" data-name="Group 29" transform="translate(0 0)">
    <path id="Path_45" data-name="Path 45" d="M12.378,22.495a10.247,10.247,0,0,0-2.832-.413A8.9,8.9,0,0,0,6,22.809c.892-3.267,3.036-8.9,7.307-9.54a1.015,1.015,0,0,0,.828-.73L15.064,9.2a1.014,1.014,0,0,0-.839-1.278,7.09,7.09,0,0,0-.955-.065c-5.126,0-10.2,5.351-12.345,13.012C-.333,25.365-.7,32.122,2.4,36.376a9.248,9.248,0,0,0,7.516,3.778h.04a9,9,0,0,0,2.425-17.66Z" transform="translate(0 -7.858)" fill="#ff5e14"/>
    <path id="Path_46" data-name="Path 46" d="M66.412,26.744A9.018,9.018,0,0,0,61,22.495a10.246,10.246,0,0,0-2.831-.413,8.9,8.9,0,0,0-3.551.727c.892-3.267,3.036-8.9,7.308-9.54a1.015,1.015,0,0,0,.828-.73L63.69,9.2a1.014,1.014,0,0,0-.839-1.278,7.081,7.081,0,0,0-.955-.065c-5.126,0-10.2,5.351-12.346,13.012-1.257,4.495-1.626,11.252,1.472,15.506a9.247,9.247,0,0,0,7.516,3.778h.04a9,9,0,0,0,7.834-13.411Z" transform="translate(-28.901 -7.858)" fill="#ff5e14"/>
  </g>
</svg>
