<svg xmlns="http://www.w3.org/2000/svg" xmlns:xlink="http://www.w3.org/1999/xlink" width="247" height="247" viewBox="0 0 247 247">
  <defs>
    <clipPath id="clip-path">
      <rect id="Rectangle_244" data-name="Rectangle 244" width="247" height="247" transform="translate(0.36 0.481)" fill="#fff"/>
    </clipPath>
  </defs>
  <g id="Mask_Group_17" data-name="Mask Group 17" transform="translate(-0.359 -0.48)" opacity="0.32" clip-path="url(#clip-path)">
    <line id="Line_924" data-name="Line 924" x1="90.549" y2="282.539" transform="translate(66.038 -12.977)" fill="none" stroke="#707070" stroke-width="1"/>
    <line id="Line_925" data-name="Line 925" x1="90.549" y2="282.539" transform="translate(-128.327 -12.977)" fill="none" stroke="#707070" stroke-width="1"/>
    <line id="Line_926" data-name="Line 926" x1="90.549" y2="282.539" transform="translate(163.508 -12.977)" fill="none" stroke="#707070" stroke-width="1"/>
    <line id="Line_927" data-name="Line 927" x1="90.549" y2="282.539" transform="translate(-30.856 -12.977)" fill="none" stroke="#707070" stroke-width="1"/>
    <line id="Line_928" data-name="Line 928" x1="90.549" y2="282.539" transform="translate(114.484 -12.977)" fill="none" stroke="#707070" stroke-width="1"/>
    <line id="Line_929" data-name="Line 929" x1="90.549" y2="282.539" transform="translate(-79.88 -12.977)" fill="none" stroke="#707070" stroke-width="1"/>
    <line id="Line_930" data-name="Line 930" x1="90.549" y2="282.539" transform="translate(211.954 -12.977)" fill="none" stroke="#707070" stroke-width="1"/>
    <line id="Line_931" data-name="Line 931" x1="90.549" y2="282.539" transform="translate(17.591 -12.977)" fill="none" stroke="#707070" stroke-width="1"/>
    <line id="Line_932" data-name="Line 932" x1="90.549" y2="282.539" transform="translate(90.261 -12.977)" fill="none" stroke="#707070" stroke-width="1"/>
    <line id="Line_933" data-name="Line 933" x1="90.549" y2="282.539" transform="translate(-104.102 -12.977)" fill="none" stroke="#707070" stroke-width="1"/>
    <line id="Line_934" data-name="Line 934" x1="90.549" y2="282.539" transform="translate(187.73 -12.977)" fill="none" stroke="#707070" stroke-width="1"/>
    <line id="Line_935" data-name="Line 935" x1="90.549" y2="282.539" transform="translate(-6.633 -12.977)" fill="none" stroke="#707070" stroke-width="1"/>
    <line id="Line_936" data-name="Line 936" x1="90.549" y2="282.539" transform="translate(138.708 -12.977)" fill="none" stroke="#707070" stroke-width="1"/>
    <line id="Line_937" data-name="Line 937" x1="90.549" y2="282.539" transform="translate(-55.655 -12.977)" fill="none" stroke="#707070" stroke-width="1"/>
    <line id="Line_938" data-name="Line 938" x1="90.549" y2="282.539" transform="translate(236.177 -12.977)" fill="none" stroke="#707070" stroke-width="1"/>
    <line id="Line_939" data-name="Line 939" x1="90.549" y2="282.539" transform="translate(41.814 -12.977)" fill="none" stroke="#707070" stroke-width="1"/>
    <line id="Line_940" data-name="Line 940" x1="90.549" y2="282.539" transform="translate(71.805 -12.977)" fill="none" stroke="#707070" stroke-width="1"/>
    <line id="Line_941" data-name="Line 941" x1="90.549" y2="282.539" transform="translate(-122.558 -12.977)" fill="none" stroke="#707070" stroke-width="1"/>
    <line id="Line_942" data-name="Line 942" x1="90.549" y2="282.539" transform="translate(169.274 -12.977)" fill="none" stroke="#707070" stroke-width="1"/>
    <line id="Line_943" data-name="Line 943" x1="90.549" y2="282.539" transform="translate(-25.089 -12.977)" fill="none" stroke="#707070" stroke-width="1"/>
    <line id="Line_944" data-name="Line 944" x1="90.549" y2="282.539" transform="translate(120.252 -12.977)" fill="none" stroke="#707070" stroke-width="1"/>
    <line id="Line_945" data-name="Line 945" x1="90.549" y2="282.539" transform="translate(-74.111 -12.977)" fill="none" stroke="#707070" stroke-width="1"/>
    <line id="Line_946" data-name="Line 946" x1="90.549" y2="282.539" transform="translate(217.721 -12.977)" fill="none" stroke="#707070" stroke-width="1"/>
    <line id="Line_947" data-name="Line 947" x1="90.549" y2="282.539" transform="translate(23.358 -12.977)" fill="none" stroke="#707070" stroke-width="1"/>
    <line id="Line_948" data-name="Line 948" x1="90.549" y2="282.539" transform="translate(96.028 -12.977)" fill="none" stroke="#707070" stroke-width="1"/>
    <line id="Line_949" data-name="Line 949" x1="90.549" y2="282.539" transform="translate(-98.336 -12.977)" fill="none" stroke="#707070" stroke-width="1"/>
    <line id="Line_950" data-name="Line 950" x1="90.549" y2="282.539" transform="translate(193.499 -12.977)" fill="none" stroke="#707070" stroke-width="1"/>
    <line id="Line_951" data-name="Line 951" x1="90.549" y2="282.539" transform="translate(-0.865 -12.977)" fill="none" stroke="#707070" stroke-width="1"/>
    <line id="Line_952" data-name="Line 952" x1="90.549" y2="282.539" transform="translate(144.475 -12.977)" fill="none" stroke="#707070" stroke-width="1"/>
    <line id="Line_953" data-name="Line 953" x1="90.549" y2="282.539" transform="translate(-49.889 -12.977)" fill="none" stroke="#707070" stroke-width="1"/>
    <line id="Line_954" data-name="Line 954" x1="90.549" y2="282.539" transform="translate(241.946 -12.977)" fill="none" stroke="#707070" stroke-width="1"/>
    <line id="Line_955" data-name="Line 955" x1="90.549" y2="282.539" transform="translate(47.582 -12.977)" fill="none" stroke="#707070" stroke-width="1"/>
    <line id="Line_956" data-name="Line 956" x1="90.549" y2="282.539" transform="translate(78.149 -12.977)" fill="none" stroke="#707070" stroke-width="1"/>
    <line id="Line_957" data-name="Line 957" x1="90.549" y2="282.539" transform="translate(-116.215 -12.977)" fill="none" stroke="#707070" stroke-width="1"/>
    <line id="Line_958" data-name="Line 958" x1="90.549" y2="282.539" transform="translate(175.62 -12.977)" fill="none" stroke="#707070" stroke-width="1"/>
    <line id="Line_959" data-name="Line 959" x1="90.549" y2="282.539" transform="translate(-18.744 -12.977)" fill="none" stroke="#707070" stroke-width="1"/>
    <line id="Line_960" data-name="Line 960" x1="90.549" y2="282.539" transform="translate(126.596 -12.977)" fill="none" stroke="#707070" stroke-width="1"/>
    <line id="Line_961" data-name="Line 961" x1="90.549" y2="282.539" transform="translate(-67.768 -12.977)" fill="none" stroke="#707070" stroke-width="1"/>
    <line id="Line_962" data-name="Line 962" x1="90.549" y2="282.539" transform="translate(224.065 -12.977)" fill="none" stroke="#707070" stroke-width="1"/>
    <line id="Line_963" data-name="Line 963" x1="90.549" y2="282.539" transform="translate(29.702 -12.977)" fill="none" stroke="#707070" stroke-width="1"/>
    <line id="Line_964" data-name="Line 964" x1="90.549" y2="282.539" transform="translate(102.373 -12.977)" fill="none" stroke="#707070" stroke-width="1"/>
    <line id="Line_965" data-name="Line 965" x1="90.549" y2="282.539" transform="translate(-91.99 -12.977)" fill="none" stroke="#707070" stroke-width="1"/>
    <line id="Line_966" data-name="Line 966" x1="90.549" y2="282.539" transform="translate(199.842 -12.977)" fill="none" stroke="#707070" stroke-width="1"/>
    <line id="Line_967" data-name="Line 967" x1="90.549" y2="282.539" transform="translate(5.479 -12.977)" fill="none" stroke="#707070" stroke-width="1"/>
    <line id="Line_968" data-name="Line 968" x1="90.549" y2="282.539" transform="translate(150.818 -12.977)" fill="none" stroke="#707070" stroke-width="1"/>
    <line id="Line_969" data-name="Line 969" x1="90.549" y2="282.539" transform="translate(-43.545 -12.977)" fill="none" stroke="#707070" stroke-width="1"/>
    <line id="Line_970" data-name="Line 970" x1="90.549" y2="282.539" transform="translate(248.289 -12.977)" fill="none" stroke="#707070" stroke-width="1"/>
    <line id="Line_971" data-name="Line 971" x1="90.549" y2="282.539" transform="translate(53.926 -12.977)" fill="none" stroke="#707070" stroke-width="1"/>
    <line id="Line_972" data-name="Line 972" x1="90.549" y2="282.539" transform="translate(84.493 -12.977)" fill="none" stroke="#707070" stroke-width="1"/>
    <line id="Line_973" data-name="Line 973" x1="90.549" y2="282.539" transform="translate(-109.871 -12.977)" fill="none" stroke="#707070" stroke-width="1"/>
    <line id="Line_974" data-name="Line 974" x1="90.549" y2="282.539" transform="translate(181.963 -12.977)" fill="none" stroke="#707070" stroke-width="1"/>
    <line id="Line_975" data-name="Line 975" x1="90.549" y2="282.539" transform="translate(-12.4 -12.977)" fill="none" stroke="#707070" stroke-width="1"/>
    <line id="Line_976" data-name="Line 976" x1="90.549" y2="282.539" transform="translate(132.94 -12.977)" fill="none" stroke="#707070" stroke-width="1"/>
    <line id="Line_977" data-name="Line 977" x1="90.549" y2="282.539" transform="translate(-61.424 -12.977)" fill="none" stroke="#707070" stroke-width="1"/>
    <line id="Line_978" data-name="Line 978" x1="90.549" y2="282.539" transform="translate(230.41 -12.977)" fill="none" stroke="#707070" stroke-width="1"/>
    <line id="Line_979" data-name="Line 979" x1="90.549" y2="282.539" transform="translate(36.047 -12.977)" fill="none" stroke="#707070" stroke-width="1"/>
    <line id="Line_980" data-name="Line 980" x1="90.549" y2="282.539" transform="translate(108.717 -12.977)" fill="none" stroke="#707070" stroke-width="1"/>
    <line id="Line_981" data-name="Line 981" x1="90.549" y2="282.539" transform="translate(-85.647 -12.977)" fill="none" stroke="#707070" stroke-width="1"/>
    <line id="Line_982" data-name="Line 982" x1="90.549" y2="282.539" transform="translate(206.186 -12.977)" fill="none" stroke="#707070" stroke-width="1"/>
    <line id="Line_983" data-name="Line 983" x1="90.549" y2="282.539" transform="translate(11.823 -12.977)" fill="none" stroke="#707070" stroke-width="1"/>
    <line id="Line_984" data-name="Line 984" x1="90.549" y2="282.539" transform="translate(157.164 -12.977)" fill="none" stroke="#707070" stroke-width="1"/>
    <line id="Line_985" data-name="Line 985" x1="90.549" y2="282.539" transform="translate(-37.2 -12.977)" fill="none" stroke="#707070" stroke-width="1"/>
    <line id="Line_986" data-name="Line 986" x1="90.549" y2="282.539" transform="translate(254.633 -12.977)" fill="none" stroke="#707070" stroke-width="1"/>
    <line id="Line_987" data-name="Line 987" x1="90.549" y2="282.539" transform="translate(60.27 -12.977)" fill="none" stroke="#707070" stroke-width="1"/>
  </g>
</svg>
