<svg xmlns="http://www.w3.org/2000/svg" xmlns:xlink="http://www.w3.org/1999/xlink" width="421" height="421" viewBox="0 0 421 421">
  <defs>
    <clipPath id="clip-path">
      <rect id="Rectangle_205" data-name="Rectangle 205" width="421" height="421" transform="translate(0.369 -0.403)" fill="#002359" stroke="#002359" stroke-width="1"/>
    </clipPath>
  </defs>
  <g id="Mask_Group_16" data-name="Mask Group 16" transform="translate(-0.369 0.402)" opacity="0.25" clip-path="url(#clip-path)">
    <g id="Group_69" data-name="Group 69" transform="translate(-487.857 -93.496)">
      <line id="Line_868" data-name="Line 868" x1="350.824" y2="582.707" transform="translate(0 0)" fill="none" stroke="#002359" stroke-width="1"/>
      <line id="Line_869" data-name="Line 869" x1="350.824" y2="582.707" transform="translate(677.642 0)" fill="none" stroke="#002359" stroke-width="1"/>
      <line id="Line_870" data-name="Line 870" x1="350.824" y2="582.707" transform="translate(340.73 0)" fill="none" stroke="#002359" stroke-width="1"/>
      <line id="Line_871" data-name="Line 871" x1="350.824" y2="582.707" transform="translate(1018.372 0)" fill="none" stroke="#002359" stroke-width="1"/>
      <line id="Line_872" data-name="Line 872" x1="350.824" y2="582.707" transform="translate(170.229 0)" fill="none" stroke="#002359" stroke-width="1"/>
      <line id="Line_873" data-name="Line 873" x1="350.824" y2="582.707" transform="translate(847.871 0)" fill="none" stroke="#002359" stroke-width="1"/>
      <line id="Line_874" data-name="Line 874" x1="350.824" y2="582.707" transform="translate(510.959 0)" fill="none" stroke="#002359" stroke-width="1"/>
      <line id="Line_875" data-name="Line 875" x1="350.824" y2="582.707" transform="translate(1188.601 0)" fill="none" stroke="#002359" stroke-width="1"/>
      <line id="Line_876" data-name="Line 876" x1="350.824" y2="582.707" transform="translate(22.915 0)" fill="none" stroke="#002359" stroke-width="1"/>
      <line id="Line_877" data-name="Line 877" x1="350.824" y2="582.707" transform="translate(700.557 0)" fill="none" stroke="#002359" stroke-width="1"/>
      <line id="Line_878" data-name="Line 878" x1="350.824" y2="582.707" transform="translate(363.646 0)" fill="none" stroke="#002359" stroke-width="1"/>
      <line id="Line_879" data-name="Line 879" x1="350.824" y2="582.707" transform="translate(1041.288 0)" fill="none" stroke="#002359" stroke-width="1"/>
      <line id="Line_880" data-name="Line 880" x1="350.824" y2="582.707" transform="translate(193.144 0)" fill="none" stroke="#002359" stroke-width="1"/>
      <line id="Line_881" data-name="Line 881" x1="350.824" y2="582.707" transform="translate(870.786 0)" fill="none" stroke="#002359" stroke-width="1"/>
      <line id="Line_882" data-name="Line 882" x1="350.824" y2="582.707" transform="translate(533.875 0)" fill="none" stroke="#002359" stroke-width="1"/>
      <line id="Line_883" data-name="Line 883" x1="350.824" y2="582.707" transform="translate(1211.517 0)" fill="none" stroke="#002359" stroke-width="1"/>
      <line id="Line_884" data-name="Line 884" x1="350.824" y2="582.707" transform="translate(46.922 0)" fill="none" stroke="#002359" stroke-width="1"/>
      <line id="Line_885" data-name="Line 885" x1="350.824" y2="582.707" transform="translate(724.564 0)" fill="none" stroke="#002359" stroke-width="1"/>
      <line id="Line_886" data-name="Line 886" x1="350.824" y2="582.707" transform="translate(387.653 0)" fill="none" stroke="#002359" stroke-width="1"/>
      <line id="Line_887" data-name="Line 887" x1="350.824" y2="582.707" transform="translate(1065.295 0)" fill="none" stroke="#002359" stroke-width="1"/>
      <line id="Line_888" data-name="Line 888" x1="350.824" y2="582.707" transform="translate(217.151 0)" fill="none" stroke="#002359" stroke-width="1"/>
      <line id="Line_889" data-name="Line 889" x1="350.824" y2="582.707" transform="translate(894.793 0)" fill="none" stroke="#002359" stroke-width="1"/>
      <line id="Line_890" data-name="Line 890" x1="350.824" y2="582.707" transform="translate(557.881 0)" fill="none" stroke="#002359" stroke-width="1"/>
      <line id="Line_891" data-name="Line 891" x1="350.824" y2="582.707" transform="translate(1235.523 0)" fill="none" stroke="#002359" stroke-width="1"/>
      <line id="Line_892" data-name="Line 892" x1="350.824" y2="582.707" transform="translate(71.747 0)" fill="none" stroke="#002359" stroke-width="1"/>
      <line id="Line_893" data-name="Line 893" x1="350.824" y2="582.707" transform="translate(749.389 0)" fill="none" stroke="#002359" stroke-width="1"/>
      <line id="Line_894" data-name="Line 894" x1="350.824" y2="582.707" transform="translate(412.478 0)" fill="none" stroke="#002359" stroke-width="1"/>
      <line id="Line_895" data-name="Line 895" x1="350.824" y2="582.707" transform="translate(1090.119 0)" fill="none" stroke="#002359" stroke-width="1"/>
      <line id="Line_896" data-name="Line 896" x1="350.824" y2="582.707" transform="translate(241.976 0)" fill="none" stroke="#002359" stroke-width="1"/>
      <line id="Line_897" data-name="Line 897" x1="350.824" y2="582.707" transform="translate(919.618 0)" fill="none" stroke="#002359" stroke-width="1"/>
      <line id="Line_898" data-name="Line 898" x1="350.824" y2="582.707" transform="translate(582.706 0)" fill="none" stroke="#002359" stroke-width="1"/>
      <line id="Line_899" data-name="Line 899" x1="350.824" y2="582.707" transform="translate(1260.348 0)" fill="none" stroke="#002359" stroke-width="1"/>
      <line id="Line_900" data-name="Line 900" x1="350.824" y2="582.707" transform="translate(96.572 0)" fill="none" stroke="#002359" stroke-width="1"/>
      <line id="Line_901" data-name="Line 901" x1="350.824" y2="582.707" transform="translate(774.214 0)" fill="none" stroke="#002359" stroke-width="1"/>
      <line id="Line_902" data-name="Line 902" x1="350.824" y2="582.707" transform="translate(437.303 0)" fill="none" stroke="#002359" stroke-width="1"/>
      <line id="Line_903" data-name="Line 903" x1="350.824" y2="582.707" transform="translate(1114.944 0)" fill="none" stroke="#002359" stroke-width="1"/>
      <line id="Line_904" data-name="Line 904" x1="350.824" y2="582.707" transform="translate(266.801 0)" fill="none" stroke="#002359" stroke-width="1"/>
      <line id="Line_905" data-name="Line 905" x1="350.824" y2="582.707" transform="translate(944.443 0)" fill="none" stroke="#002359" stroke-width="1"/>
      <line id="Line_906" data-name="Line 906" x1="350.824" y2="582.707" transform="translate(607.532 0)" fill="none" stroke="#002359" stroke-width="1"/>
      <line id="Line_907" data-name="Line 907" x1="350.824" y2="582.707" transform="translate(1285.173 0)" fill="none" stroke="#002359" stroke-width="1"/>
      <line id="Line_908" data-name="Line 908" x1="350.824" y2="582.707" transform="translate(121.943 0)" fill="none" stroke="#002359" stroke-width="1"/>
      <line id="Line_909" data-name="Line 909" x1="350.824" y2="582.707" transform="translate(799.585 0)" fill="none" stroke="#002359" stroke-width="1"/>
      <line id="Line_910" data-name="Line 910" x1="350.824" y2="582.707" transform="translate(462.673 0)" fill="none" stroke="#002359" stroke-width="1"/>
      <line id="Line_911" data-name="Line 911" x1="350.824" y2="582.707" transform="translate(1140.315 0)" fill="none" stroke="#002359" stroke-width="1"/>
      <line id="Line_912" data-name="Line 912" x1="350.824" y2="582.707" transform="translate(292.172 0)" fill="none" stroke="#002359" stroke-width="1"/>
      <line id="Line_913" data-name="Line 913" x1="350.824" y2="582.707" transform="translate(969.813 0)" fill="none" stroke="#002359" stroke-width="1"/>
      <line id="Line_914" data-name="Line 914" x1="350.824" y2="582.707" transform="translate(632.902 0)" fill="none" stroke="#002359" stroke-width="1"/>
      <line id="Line_915" data-name="Line 915" x1="350.824" y2="582.707" transform="translate(1310.544 0)" fill="none" stroke="#002359" stroke-width="1"/>
      <line id="Line_916" data-name="Line 916" x1="350.824" y2="582.707" transform="translate(146.768 0)" fill="none" stroke="#002359" stroke-width="1"/>
      <line id="Line_917" data-name="Line 917" x1="350.824" y2="582.707" transform="translate(824.41 0)" fill="none" stroke="#002359" stroke-width="1"/>
      <line id="Line_918" data-name="Line 918" x1="350.824" y2="582.707" transform="translate(487.498 0)" fill="none" stroke="#002359" stroke-width="1"/>
      <line id="Line_919" data-name="Line 919" x1="350.824" y2="582.707" transform="translate(1165.14 0)" fill="none" stroke="#002359" stroke-width="1"/>
      <line id="Line_920" data-name="Line 920" x1="350.824" y2="582.707" transform="translate(316.997 0)" fill="none" stroke="#002359" stroke-width="1"/>
      <line id="Line_921" data-name="Line 921" x1="350.824" y2="582.707" transform="translate(994.639 0)" fill="none" stroke="#002359" stroke-width="1"/>
      <line id="Line_922" data-name="Line 922" x1="350.824" y2="582.707" transform="translate(657.727 0)" fill="none" stroke="#002359" stroke-width="1"/>
      <line id="Line_923" data-name="Line 923" x1="350.824" y2="582.707" transform="translate(1335.369 0)" fill="none" stroke="#002359" stroke-width="1"/>
    </g>
  </g>
</svg>
