<svg xmlns="http://www.w3.org/2000/svg" width="38.01" height="38.01" viewBox="0 0 38.01 38.01">
  <g id="Union_7" data-name="Union 7" transform="translate(28.992 38.008) rotate(-135)" fill="none">
    <path d="M31,12.752a2,2,0,0,1-2-2v-1a4,4,0,0,0-4-4H16a4,4,0,0,0-4,4v1a2,2,0,0,1-2,2H2a2,2,0,0,1-2-2v-4H.026A4.725,4.725,0,0,1,1.607,3.671,11.038,11.038,0,0,1,5.984,1.449C9.3.473,14.036,0,20.459,0S31.637.473,34.972,1.449a11.157,11.157,0,0,1,4.406,2.222,4.7,4.7,0,0,1,1.595,3.081H41v.941q0,.03,0,.059v3a2,2,0,0,1-2,2Z" stroke="none"/>
    <path d="M 38.99969863891602 11.05210018157959 C 39.16551208496094 11.05210018157959 39.30039978027344 10.91761016845703 39.30039978027344 10.75230026245117 L 39.30039978027344 7.751700401306152 L 39.30020904541016 7.741690158843994 L 39.29949951171875 7.717080116271973 L 39.29949951171875 7.692450046539307 L 39.29949951171875 7.101290702819824 L 39.28150177001953 6.917520046234131 C 39.20666122436523 6.153460025787354 38.86368179321289 5.502390384674072 38.2305908203125 4.924920082092285 C 37.44271087646484 4.203530311584473 36.15069961547852 3.565710306167603 34.49454116821289 3.080520153045654 C 31.31744003295898 2.150360107421875 26.72631072998047 1.698200225830078 20.45879936218262 1.698200225830078 C 14.19933986663818 1.698200225830078 9.62168025970459 2.150120258331299 6.46465015411377 3.079670190811157 C 4.821920394897461 3.563780307769775 3.540890216827393 4.200380325317383 2.759020328521729 4.921610355377197 C 2.133090257644653 5.498050212860107 1.792600274085999 6.150540351867676 1.718120217323303 6.916370391845703 L 1.700000286102295 7.102657318115234 L 1.700000286102295 9.752400398254395 L 1.700000286102295 10.75230026245117 C 1.700000286102295 10.91761016845703 1.834490299224854 11.05210018157959 1.999800324440002 11.05210018157959 L 9.999899864196777 11.05210018157959 C 10.16521072387695 11.05210018157959 10.29970073699951 10.91761016845703 10.29970073699951 10.75230026245117 L 10.29970073699951 9.752400398254395 C 10.29970073699951 6.609130382537842 12.85653018951416 4.051900386810303 15.99930000305176 4.051900386810303 L 24.99930000305176 4.051900386810303 C 26.51941108703613 4.051900386810303 27.95033073425293 4.644950389862061 29.02989959716797 5.723230361938477 C 30.10675048828125 6.801370143890381 30.69980049133301 8.232290267944336 30.69980049133301 9.752400398254395 L 30.69980049133301 10.75230026245117 C 30.69980049133301 10.91761016845703 30.83428955078125 11.05210018157959 30.99959945678711 11.05210018157959 L 38.99969863891602 11.05210018157959 M 38.99969863891602 12.75209999084473 L 30.99959945678711 12.75209999084473 C 29.89529991149902 12.75209999084473 28.99979972839355 11.85659980773926 28.99979972839355 10.75230026245117 L 28.99979972839355 9.752400398254395 C 28.99979972839355 8.685000419616699 28.58309936523438 7.681500434875488 27.82710075378418 6.924600124359131 C 27.07019996643066 6.168600082397461 26.06669998168945 5.751900196075439 24.99930000305176 5.751900196075439 L 15.99930000305176 5.751900196075439 C 13.7943000793457 5.751900196075439 11.99970054626465 7.546500205993652 11.99970054626465 9.752400398254395 L 11.99970054626465 10.75230026245117 C 11.99970054626465 11.85659980773926 11.10420036315918 12.75209999084473 9.999899864196777 12.75209999084473 L 1.999800324440002 12.75209999084473 C 0.8955002427101135 12.75209999084473 2.716064386731887e-07 11.85659980773926 2.716064386731887e-07 10.75230026245117 L 2.716064386731887e-07 9.752400398254395 L 2.716064386731887e-07 6.751800060272217 L 0.02610027231276035 6.751800060272217 C 0.1413002759218216 5.567399978637695 0.6741002798080444 4.530600070953369 1.607400298118591 3.67110013961792 C 2.59380030632019 2.761200189590454 4.066200256347656 2.014200210571289 5.984100341796875 1.449000239372253 C 9.300600051879883 0.472500205039978 14.03550052642822 -0.001799796242266893 20.45879936218262 -0.001799796242266893 C 26.8892993927002 -0.001799796242266893 31.63680076599121 0.472500205039978 34.97219848632812 1.449000239372253 C 36.90449905395508 2.015100240707397 38.38679885864258 2.763000249862671 39.37860107421875 3.67110013961792 C 40.32089996337891 4.530600070953369 40.8572998046875 5.566500186920166 40.9734001159668 6.751800060272217 L 40.9995002746582 6.751800060272217 L 40.9995002746582 7.692450046539307 C 41.00006866455078 7.712120056152344 41.00040054321289 7.731880187988281 41.00040054321289 7.751700401306152 L 41.00040054321289 10.75230026245117 C 41.00040054321289 11.85659980773926 40.10490036010742 12.75209999084473 38.99969863891602 12.75209999084473 Z" stroke="none" fill="#fff"/>
  </g>
</svg>
