<?xml version="1.0" encoding="utf-8"?>
<!-- Generator: Adobe Illustrator 23.0.2, SVG Export Plug-In . SVG Version: 6.00 Build 0)  -->
<svg version="1.1" id="Layer_1" xmlns="http://www.w3.org/2000/svg" xmlns:xlink="http://www.w3.org/1999/xlink" x="0px" y="0px"
	 viewBox="0 0 253.1 51.6" style="enable-background:new 0 0 253.1 51.6;" xml:space="preserve">
<style type="text/css">
	.st0{fill-rule:evenodd;clip-rule:evenodd;fill:#003169;}
	.st1{fill:#003169;}
</style>
<g>
	<path class="st0" d="M239.8,42.1c-0.7-3-1.2-6.7-1.9-11c-1.2,5.1-2,8.7-2.3,11H239.8z M246.2,25.3l6.9,26.3h-12.3l-0.5-4.7H236
		l-0.7,4.7h-12.4l6.2-26.3H246.2z M205.3,39.7v7.4c1.6,0,2.7-0.2,3.2-0.4c0.4-0.2,0.7-1,0.7-2v-2.4c0-1.1-0.2-1.8-0.7-2.1
		C208.2,39.8,207.1,39.7,205.3,39.7z M205.3,29.8v5.8c0.5,0,0.9,0,1.2,0c1.2,0,2-0.2,2.2-0.4c0.3-0.3,0.4-1.3,0.4-2.9
		c0-0.9-0.1-1.4-0.4-1.8c-0.2-0.3-0.7-0.5-1-0.7C207.3,29.8,206.5,29.8,205.3,29.8z M193.2,25.3h12c3.7,0,6.6,0.2,8.6,0.5
		s3.5,1,4.7,2s1.8,2.6,1.8,4.9c0,1.5-0.4,2.6-1.3,3.2c-0.9,0.7-2.5,1.1-5.1,1.4c2.7,0.3,4.6,1,5.6,1.8c1,0.9,1.4,2.1,1.4,3.8v2.4
		c0,1.8-0.3,3.1-1.1,4c-0.7,0.9-1.9,1.4-3.4,1.8c-1.5,0.3-4.7,0.4-9.6,0.4H193V25.3H193.2z M191.2,25.3L182.5,42v9.5h-11.1V42
		l-8.5-16.7h11c1.8,5.2,2.7,8.6,2.9,10.3c0.7-2.7,1.8-6.3,3.3-10.3H191.2z M162,25.3v5.3h-7.1v21h-12v-21h-7.1v-5.3
		C135.7,25.3,162,25.3,162,25.3z M124.1,42.1c-0.7-3-1.2-6.7-1.9-11c-1.2,5.1-2,8.7-2.3,11H124.1z M130.4,25.3l6.8,26.3h-12.3
		l-0.5-4.7H120l-0.7,4.7h-12.4l6.2-26.3H130.4z M108.7,25.3v5.3h-7.1v21h-12v-21h-7.1v-5.3C82.4,25.3,108.7,25.3,108.7,25.3z
		 M81.8,33.5H71.1v-1.9c0-0.8-0.1-1.5-0.4-1.7s-0.7-0.3-1.4-0.3c-0.7,0-1.1,0.2-1.6,0.5c-0.3,0.3-0.5,0.8-0.5,1.5
		c0,0.8,0.2,1.5,0.6,1.9s1.5,0.9,3.2,1.6c5.1,1.7,8.2,3.1,9.6,4.2c1.4,1.1,2,2.9,2,5.3c0,1.8-0.4,3.1-1.1,4
		c-0.7,0.8-2.2,1.6-4.3,2.1c-2.1,0.5-4.5,0.8-7.3,0.8c-3,0-5.6-0.3-7.8-0.9C60,49.9,58.6,49,57.9,48c-0.6-1-1-2.5-1-4.3V42h10.5v3
		c0,0.9,0.1,1.6,0.4,1.8s0.8,0.4,1.6,0.4c0.7,0,1.4-0.2,1.7-0.5c0.4-0.3,0.5-0.8,0.5-1.5c0-1.5-0.3-2.4-1-2.9
		c-0.7-0.4-2.5-1.3-5.3-2.3c-2.8-1-4.7-1.9-5.6-2.3c-0.9-0.5-1.7-1.1-2.3-2c-0.6-0.8-0.9-2-0.9-3.2c0-1.9,0.4-3.3,1.3-4.2
		c0.8-0.8,2.2-1.6,4.2-2.1c1.9-0.5,4.2-0.7,6.9-0.7c2.9,0,5.5,0.3,7.5,0.8c2.1,0.5,3.4,1.3,4.2,2.1c0.6,0.8,1,2.2,1,4.2v0.8h0.2
		V33.5z"/>
	<g>
		<g>
			<path class="st1" d="M17.2,0C18.3,1,19,2.1,19,3.3V4c-0.2,0.7-0.4,1.3-0.6,1.9C16,12.5,10,14.1,8.3,15c0.1,0.6,0.5,1.1,1.1,1.7
				c4.9,4.8,24.2,10.2,34.5,20.3V0H17.2z"/>
			<path class="st1" d="M28.8,40.2c-3.3-4.1-5.8-6.5-9.9-9.1C15.6,29,5.5,25.7,0,21.2v2.9v27.4h33.2h1.7c-0.7-1.7-1.5-3.6-2.2-4.8
				C30.9,43.2,30.8,42.9,28.8,40.2z"/>
			<path class="st1" d="M9.1,7.8c2-2.2-0.7-5.4-4.6-7.8H0v0.5V11C3.1,10,7.2,9.4,9.1,7.8C9,7.8,9,7.8,9.1,7.8z"/>
		</g>
	</g>
	<g>
		<path class="st1" d="M70,15.5v3.8h-5.5v-3.2c0-0.4-0.1-0.9-0.2-1.1c-0.2-0.2-0.4-0.3-0.9-0.3h-1.6v4.5h-5.5V6.1h9.6
			c0.9,0,1.6,0.1,2.2,0.3c0.5,0.2,1,0.5,1.3,1s0.4,1.2,0.4,2.1v0.9c0,0.9-0.2,1.4-0.5,1.9c-0.3,0.3-1,0.5-1.9,0.7v0.1
			c0.9,0,1.5,0.2,2,0.5C69.8,13.9,70,14.7,70,15.5z M64.3,10.9v-1c0-0.3-0.1-0.7-0.3-0.8s-0.5-0.2-1-0.2h-1.3v3.2h1.2
			c0.5,0,0.9-0.1,1.1-0.2C64.2,11.6,64.3,11.3,64.3,10.9z"/>
		<path class="st1" d="M88.7,19.2H78.1V6.1h10.4v2.7h-4.8V11H88v2.6h-4.3v2.5h5.2v3h-0.2V19.2z"/>
		<path class="st1" d="M102,14.1v5.3h-5.6V6.1h5.6v4.7h0.3l3-4.7h5.7l-4.4,6.4l5.2,6.7h-6.2L102,14.1z"/>
		<path class="st1" d="M133.1,15.5v3.8h-5.5v-3.2c0-0.4-0.1-0.9-0.2-1.1c-0.2-0.2-0.4-0.3-0.9-0.3h-1.6v4.5h-5.5V6.1h9.6
			c0.9,0,1.6,0.1,2.2,0.3c0.5,0.2,1,0.5,1.3,1s0.4,1.2,0.4,2.1v0.9c0,0.9-0.2,1.4-0.5,1.9s-1,0.5-1.9,0.7v0.1c0.9,0,1.5,0.2,2,0.5
			C132.9,13.9,133.1,14.7,133.1,15.5z M127.4,10.9v-1c0-0.3-0.1-0.7-0.3-0.8c-0.2-0.1-0.5-0.2-1-0.2h-1.3v3.2h1.2
			c0.5,0,0.9-0.1,1.1-0.2C127.3,11.6,127.4,11.3,127.4,10.9z"/>
		<path class="st1" d="M151.7,19.2H141V6.1h10.4v2.7h-4.8V11h4.3v2.6h-4.3v2.5h5.2v3h-0.1V19.2z"/>
		<path class="st1" d="M165.8,16.8l-0.4,2.5h-6l3.5-13.1h8.8l3.5,13.1h-5.9l-0.4-2.5H165.8z M167.3,9.3h-0.2l-0.9,4.8h2.1L167.3,9.3
			z"/>
		<path class="st1" d="M194.8,18.1c-0.5,0.7-1.2,1.1-2.1,1.2c-0.9,0.2-2.1,0.3-3.5,0.3c-1.6,0-2.9-0.1-3.8-0.2
			c-0.9-0.2-1.6-0.5-2.2-1.2c-0.5-0.7-0.8-1.5-0.8-2.9V10c0-1.3,0.2-2.2,0.8-2.9s1.3-1,2.2-1.2c0.9-0.2,2.2-0.2,3.8-0.2
			c1.8,0,3.1,0.1,3.8,0.2c0.8,0.1,1.4,0.5,1.9,1.1c0.3,0.5,0.5,1.5,0.5,2.7V11h-5.1v-1c0-0.9-0.4-1.3-1.2-1.3
			c-0.3,0-0.7,0.1-0.9,0.3s-0.3,0.5-0.3,1v5.4c0,0.4,0.1,0.8,0.3,1s0.5,0.3,0.9,0.3c0.8,0,1.2-0.4,1.2-1.2V14h5.2v1.5
			C195.6,16.6,195.2,17.5,194.8,18.1z"/>
		<path class="st1" d="M209,19.2h-5.6V6.1h5.6V19.2z"/>
		<path class="st1" d="M233.6,19.2h-7.8l-3.8-8.5l0,0v8.5h-5.1V6.1h7.8l4,8.2l0,0V6.1h5.1v13.1H233.6z"/>
		<path class="st1" d="M252.2,19.2h-10.7V6.1h10.4v2.7h-4.8V11h4.3v2.6h-4.3v2.5h5.2v3h-0.1V19.2z"/>
	</g>
	<g>
		<path class="st1" d="M248.5,4.4h-3.8v-4h3.8V4.4z"/>
	</g>
</g>
</svg>
